<?xml version="1.0" encoding="UTF-8" standalone="no"?>
<svg
   xmlns:dc="http://purl.org/dc/elements/1.1/"
   xmlns:cc="http://creativecommons.org/ns#"
   xmlns:rdf="http://www.w3.org/1999/02/22-rdf-syntax-ns#"
   xmlns:svg="http://www.w3.org/2000/svg"
   xmlns="http://www.w3.org/2000/svg"
   xml:space="preserve"
   viewBox="0 0 57.599998 57.599996"
   height="57.599998"
   width="57.599998"
   y="0px"
   x="0px"
   id="_x30_6-C"
   version="1.1"><metadata
   id="metadata123"><rdf:RDF><cc:Work
       rdf:about=""><dc:format>image/svg+xml</dc:format><dc:type
         rdf:resource="http://purl.org/dc/dcmitype/StillImage" /><dc:title></dc:title></cc:Work></rdf:RDF></metadata><defs
   id="defs121">
	
	
</defs>
<g
   transform="translate(1,1)"
   id="g94">
		<path
   style="fill:#00205b"
   d="m 16.4,32.2 c -0.3,0 -0.6,0.3 -0.6,0.6 0,0.2 0.4,0.4 0.6,0.4 0.7,-0.1 0.7,-1 0,-1 z"
   id="path2" />
		<polygon
   style="fill:#00205b"
   points="13.9,37.9 14.4,37.9 14.4,37.1 14.6,36.8 15.1,37.9 15.7,37.9 14.9,36.4 15.6,35.3 15,35.3 14.4,36.3 14.4,35.3 13.9,35.3 "
   id="polygon4" />
		<polygon
   style="fill:#00205b"
   points="17.1,37.9 17.1,36.8 17.8,35.3 17.2,35.3 16.8,36.3 16.5,35.3 15.9,35.3 16.6,36.8 16.6,37.9 "
   id="polygon6" />
		<path
   style="fill:#00205b"
   d="m 19.6,35.6 c -0.1,-0.1 -0.1,-0.2 -0.3,-0.3 -0.1,-0.1 -0.3,-0.1 -0.5,-0.1 -0.2,0 -0.3,0 -0.5,0.1 -0.1,0.1 -0.2,0.2 -0.3,0.3 -0.1,0.1 -0.1,0.3 -0.1,0.4 0,0.2 0,0.3 0,0.5 0,0.2 0,0.4 0,0.5 0,0.2 0.1,0.3 0.1,0.4 0.1,0.1 0.2,0.2 0.3,0.3 0.1,0.1 0.3,0.1 0.5,0.1 0.2,0 0.3,0 0.5,-0.1 0.1,-0.1 0.2,-0.1 0.3,-0.3 0.1,-0.1 0.1,-0.3 0.1,-0.4 0,-0.2 0,-0.3 0,-0.5 0,-0.2 0,-0.4 0,-0.5 0,-0.1 0,-0.3 -0.1,-0.4 z M 19.2,37 c 0,0.1 0,0.2 0,0.3 0,0.1 -0.1,0.1 -0.1,0.2 0,0 -0.1,0 -0.2,0 -0.1,0 -0.1,0 -0.2,0 0,0 -0.1,-0.1 -0.1,-0.2 0,-0.1 0,-0.2 -0.1,-0.3 0,-0.1 0,-0.3 0,-0.4 0,-0.2 0,-0.3 0,-0.4 0,-0.1 0,-0.2 0.1,-0.3 0,-0.1 0,-0.1 0.1,-0.2 0.1,0 0.1,0 0.2,0 0.1,0 0.1,0 0.2,0 0,0 0.1,0.1 0.1,0.2 0,0.1 0,0.2 0,0.3 0,0.1 0,0.3 0,0.4 0,0.2 0,0.3 0,0.4 z"
   id="path8" />
		<polygon
   style="fill:#00205b"
   points="21.7,35.3 20,35.3 20,35.7 20.6,35.7 20.6,37.9 21.1,37.9 21.1,35.7 21.7,35.7 "
   id="polygon10" />
		<path
   style="fill:#00205b"
   d="m 23.4,35.6 c -0.1,-0.1 -0.1,-0.2 -0.3,-0.3 -0.1,-0.1 -0.3,-0.1 -0.5,-0.1 -0.2,0 -0.3,0 -0.5,0.1 -0.1,0.1 -0.2,0.2 -0.2,0.3 -0.1,0.1 -0.1,0.3 -0.1,0.4 0,0.2 0,0.3 0,0.5 0,0.2 0,0.4 0,0.5 0,0.2 0.1,0.3 0.1,0.4 0.1,0.1 0.1,0.2 0.2,0.3 0.1,0.1 0.3,0.1 0.5,0.1 0.2,0 0.4,0 0.5,-0.1 0.1,-0.1 0.2,-0.1 0.3,-0.3 0.1,-0.1 0.1,-0.3 0.1,-0.4 0,-0.2 0,-0.3 0,-0.5 0,-0.2 0,-0.4 0,-0.5 0,-0.1 0,-0.3 -0.1,-0.4 z M 23.1,37 c 0,0.1 0,0.2 0,0.3 0,0.1 -0.1,0.1 -0.1,0.2 0,0 -0.1,0 -0.2,0 -0.1,0 -0.1,0 -0.2,0 0,0 -0.1,-0.1 -0.1,-0.2 0,-0.1 0,-0.2 0,-0.3 0,-0.1 0,-0.3 0,-0.4 0,-0.2 0,-0.3 0,-0.4 0,-0.1 0,-0.2 0,-0.3 0,-0.1 0.1,-0.1 0.1,-0.2 0.1,0 0.1,0 0.2,0 0.1,0 0.1,0 0.2,0 0.1,0 0.1,0.1 0.1,0.2 0,0.1 0,0.2 0,0.3 0,0.1 0,0.3 0,0.4 0,0.2 0,0.3 0,0.4 z"
   id="path12" />
		<path
   style="fill:#00205b"
   d="m 33.2,37.1 c 0,0.1 0,0.2 -0.1,0.3 0,0.1 -0.1,0.1 -0.2,0.1 -0.1,0 -0.2,0 -0.2,-0.1 0,-0.1 0,-0.2 0,-0.3 V 37 h -0.5 v 0.1 c 0,0.1 0,0.2 0,0.3 0,0.1 0,0.2 0.1,0.2 0.1,0.1 0.1,0.1 0.2,0.2 0.1,0 0.2,0.1 0.3,0.1 0.3,0 0.5,-0.1 0.6,-0.2 0.1,-0.1 0.2,-0.3 0.2,-0.6 v -1.9 h -0.5 v 1.9 z"
   id="path14" />
		<path
   style="fill:#00205b"
   d="M 34.7,35.3 34,37.9 h 0.5 l 0.1,-0.5 h 0.7 l 0.1,0.5 H 36 l -0.7,-2.6 z m 0.1,1.6 0.2,-1.1 v 0 l 0.2,1.1 z"
   id="path16" />
		<path
   style="fill:#00205b"
   d="m 37.9,35.8 c 0,-0.1 -0.1,-0.2 -0.1,-0.2 -0.1,-0.1 -0.1,-0.1 -0.2,-0.2 -0.1,0 -0.2,-0.1 -0.3,-0.1 h -0.9 v 2.6 h 0.5 v -1 h 0.3 c 0.1,0 0.2,0 0.3,0 0.1,0 0.2,-0.1 0.2,-0.1 0.1,-0.1 0.1,-0.1 0.2,-0.2 0,-0.1 0.1,-0.2 0.1,-0.3 -0.1,-0.3 -0.1,-0.4 -0.1,-0.5 z m -0.6,0.6 c -0.1,0.1 -0.1,0.1 -0.2,0.1 H 36.9 V 35.7 H 37 c 0.1,0 0.2,0 0.3,0.1 0.1,0.1 0.1,0.2 0.1,0.3 0,0.1 0,0.2 -0.1,0.3 z"
   id="path18" />
		<path
   style="fill:#00205b"
   d="m 38.6,35.3 -0.7,2.6 h 0.5 l 0.1,-0.5 h 0.7 l 0.1,0.5 h 0.5 l -0.7,-2.6 z m 0.1,1.6 0.2,-1.1 v 0 l 0.3,1.1 z"
   id="path20" />
		<polygon
   style="fill:#00205b"
   points="40.6,36.1 40.7,36.1 41.3,37.9 41.9,37.9 41.9,35.3 41.4,35.3 41.4,37 40.8,35.3 40.2,35.3 40.2,37.9 40.6,37.9 "
   id="polygon22" />
		<path
   style="fill:#00205b"
   d="m 25.4,37.8 c 0.1,0 0.2,-0.1 0.2,-0.2 V 36 h 1.3 v 1.6 c 0,0.1 0.1,0.2 0.2,0.2 0.1,0 0.2,-0.1 0.2,-0.2 V 36 h 1.6 v 1.6 c 0,0.1 0.1,0.2 0.2,0.2 0.1,0 0.2,-0.1 0.2,-0.2 V 36 h 1.3 v 1.6 c 0,0.1 0.1,0.2 0.2,0.2 0.1,0 0.2,-0.1 0.2,-0.2 v -1.8 c 0,-0.1 -0.1,-0.2 -0.2,-0.2 h -2.5 v -0.8 c 0,-0.1 -0.1,-0.2 -0.2,-0.2 -0.1,0 -0.2,0.1 -0.2,0.2 v 0.8 h -2.5 c -0.1,0 -0.2,0.1 -0.2,0.2 v 1.8 c 0,0.1 0.1,0.2 0.2,0.2 z"
   id="path24" />
		<path
   style="fill:#00205b"
   d="m 25.3,40.6 h 1.1 c 0.1,0 0.2,-0.1 0.2,-0.2 0,-0.1 -0.1,-0.2 -0.2,-0.2 h -0.9 v -0.4 h 0.9 c 0.1,0 0.2,-0.1 0.2,-0.2 0,-0.1 -0.1,-0.2 -0.2,-0.2 H 25.5 V 39 h 0.9 c 0.1,0 0.2,-0.1 0.2,-0.2 0,-0.1 -0.1,-0.2 -0.2,-0.2 h -0.9 v -0.3 c 0,-0.1 -0.1,-0.2 -0.2,-0.2 -0.1,0 -0.2,0.1 -0.2,0.2 v 2 c 0,0.2 0.1,0.3 0.2,0.3 z"
   id="path26" />
		<path
   style="fill:#00205b"
   d="m 30.7,38.2 c -0.1,0 -0.2,0.1 -0.2,0.2 v 0.3 h -0.9 c -0.1,0 -0.2,0.1 -0.2,0.2 0,0.1 0.1,0.2 0.2,0.2 h 0.9 v 0.4 h -0.9 c -0.1,0 -0.2,0.1 -0.2,0.2 0,0.1 0.1,0.2 0.2,0.2 h 0.9 v 0.4 h -0.9 c -0.1,0 -0.2,0.1 -0.2,0.2 0,0.1 0.1,0.2 0.2,0.2 h 1.1 c 0.1,0 0.2,-0.1 0.2,-0.2 v -2 c 0,-0.2 -0.1,-0.3 -0.2,-0.3 z"
   id="path28" />
		<path
   style="fill:#00205b"
   d="m 29,39.4 c 0,-0.1 0,-0.1 -0.1,-0.2 l -0.6,-0.4 0.6,-0.4 C 29,38.3 29,38.2 28.9,38.1 28.8,38 28.7,38 28.6,38.1 L 28,38.6 27.3,38.1 c -0.1,-0.1 -0.2,0 -0.2,0 -0.1,0.1 0,0.2 0,0.3 l 0.6,0.4 -0.6,0.4 c 0,0 -0.1,0.1 -0.1,0.2 0,0.1 0,0.1 0.1,0.1 l 0.6,0.4 -0.6,0.4 c -0.1,0.1 -0.1,0.2 0,0.3 0,0.1 0.1,0.1 0.2,0.1 0,0 0.1,0 0.1,0 l 0.7,-0.5 0.7,0.5 c 0,0 0.1,0 0.1,0 0.1,0 0.1,0 0.2,-0.1 0.1,-0.1 0,-0.2 0,-0.3 l -0.6,-0.4 0.6,-0.4 C 29,39.5 29,39.4 29,39.4 Z m -1,0.3 -0.5,-0.3 0.5,-0.3 0.5,0.3 z"
   id="path30" />
		<path
   style="fill:#00205b"
   d="m 30.7,41.1 h -5.3 c -0.1,0 -0.2,0.1 -0.2,0.2 v 3.1 c 0,0.1 0.1,0.2 0.2,0.2 0.1,0 0.2,-0.1 0.2,-0.2 v -2.9 h 5 v 2.8 c 0,0.1 0.1,0.2 0.2,0.2 0.1,0 0.2,-0.1 0.2,-0.2 v -3 c -0.1,-0.1 -0.2,-0.2 -0.3,-0.2 z"
   id="path32" />
		<path
   style="fill:#00205b"
   d="m 30,41.8 c -0.1,0 -0.2,0.1 -0.2,0.2 v 1.4 H 28.2 V 43 h 1.1 c 0.1,0 0.2,-0.1 0.2,-0.2 V 42 c 0,-0.1 -0.1,-0.2 -0.2,-0.2 h -2.5 c -0.1,0 -0.2,0.1 -0.2,0.2 v 0.8 c 0,0.1 0.1,0.2 0.2,0.2 h 1.1 v 0.4 H 26.3 V 42 c 0,-0.1 -0.1,-0.2 -0.2,-0.2 -0.1,0 -0.2,0.1 -0.2,0.2 v 1.6 c 0,0.1 0.1,0.2 0.2,0.2 h 1.8 v 0.4 H 26 c -0.1,0 -0.2,0.1 -0.2,0.2 0,0.1 0.1,0.2 0.2,0.2 h 2 c 0.1,0 0.2,-0.1 0.2,-0.2 V 43.8 H 30 c 0.1,0 0.2,-0.1 0.2,-0.2 V 42 c 0,-0.1 -0.1,-0.2 -0.2,-0.2 z m -3,0.8 v -0.4 h 2.1 v 0.4 z"
   id="path34" />
		<path
   style="fill:#00205b"
   d="M 27.8,0 C 12.4,0 0,12.4 0,27.8 0,43.2 12.4,55.6 27.8,55.6 43.1,55.6 55.6,43.2 55.6,27.8 55.6,12.4 43.1,0 27.8,0 Z m 19.1,46.9 c -4.9,4.9 -11.7,7.9 -19.2,7.9 -7.5,0 -14.3,-3 -19.2,-7.9 -4.9,-4.9 -8,-11.7 -8,-19.2 0,-7.5 3,-14.3 8,-19.2 5,-4.9 11.7,-7.9 19.2,-7.9 7.5,0 14.3,3 19.2,7.9 4.9,4.9 7.9,11.7 7.9,19.2 0.1,7.6 -2.9,14.3 -7.9,19.2 z"
   id="path36" />
		<path
   style="fill:#00205b"
   d="M 27.8,1.5 C 13.2,1.5 1.5,13.2 1.5,27.8 1.5,42.3 13.2,54 27.8,54 42.3,54 54,42.3 54,27.8 54,13.2 42.3,1.5 27.8,1.5 Z M 46.1,46.1 C 41.4,50.8 34.9,53.7 27.8,53.7 20.7,53.7 14.2,50.8 9.5,46.1 4.8,41.4 1.9,34.9 1.9,27.8 1.9,20.6 4.8,14.2 9.5,9.5 14.2,4.8 20.7,1.9 27.8,1.9 c 7.2,0 13.6,2.9 18.3,7.6 4.7,4.7 7.6,11.1 7.6,18.3 -0.1,7.1 -2.9,13.6 -7.6,18.3 z"
   id="path38" />
		<polygon
   style="fill:#00205b"
   points="3.7,23.8 3.6,24.6 5.5,26.9 3.4,26.7 3.4,27.3 7.6,27.6 7.6,27.1 6.2,27 5.6,26.2 7.8,24.9 7.9,24.2 5.2,25.8 "
   id="polygon40" />
		<polygon
   style="fill:#00205b"
   points="4.1,21.9 3.9,22.5 6.8,21.7 8.4,22.2 8.6,21.7 7,21.2 5,18.9 4.8,19.6 6.4,21.3 "
   id="polygon42" />
		<path
   style="fill:#00205b"
   d="m 7.4,18.6 c 0.6,0.3 1.1,0.4 1.7,0.3 0.6,-0.1 1,-0.4 1.3,-1 0.3,-0.6 0.4,-1.2 0.1,-1.8 C 10.3,15.6 9.9,15.2 9.4,14.9 8.9,14.6 8.4,14.5 7.9,14.6 7.3,14.7 6.8,15 6.5,15.7 c -0.4,0.6 -0.4,1.2 -0.1,1.8 0.2,0.4 0.5,0.8 1,1.1 z M 7,15.9 c 0.2,-0.4 0.5,-0.6 0.9,-0.7 0.4,-0.1 0.8,0 1.2,0.3 0.4,0.2 0.7,0.5 0.9,0.9 0.2,0.4 0.2,0.8 -0.1,1.2 -0.3,0.5 -0.6,0.7 -1,0.8 -0.4,0 -0.8,0 -1.2,-0.3 -0.5,-0.3 -0.8,-0.6 -1,-1 -0.2,-0.4 0,-0.8 0.3,-1.2 z"
   id="path44" />
		<polygon
   style="fill:#00205b"
   points="8.6,12.7 8.9,13 9.9,12 12.6,14.5 13,14.1 10.3,11.6 11.2,10.5 10.9,10.2 "
   id="polygon46" />
		<path
   style="fill:#00205b"
   d="M 14.4,11.9 C 15,12 15.5,11.9 16,11.5 16.6,11.1 16.9,10.6 16.9,10 16.9,9.5 16.7,9 16.4,8.4 16.1,7.9 15.7,7.6 15.2,7.5 14.6,7.3 14,7.4 13.4,7.9 c -0.6,0.4 -0.9,0.9 -0.9,1.6 0,0.5 0.2,1 0.5,1.4 0.5,0.6 0.9,0.9 1.4,1 z M 13.8,8.3 C 14.2,8 14.5,8 14.9,8 c 0.4,0.1 0.7,0.3 1,0.8 0.3,0.4 0.4,0.8 0.5,1.2 0,0.4 -0.2,0.8 -0.6,1.1 -0.4,0.3 -0.8,0.4 -1.2,0.3 -0.4,-0.1 -0.7,-0.4 -1,-0.8 -0.3,-0.5 -0.5,-0.9 -0.4,-1.3 0,-0.4 0.2,-0.7 0.6,-1 z"
   id="path48" />
		<path
   style="fill:#00205b"
   d="M 20.4,8.3 C 20.8,8.7 21.3,8.8 22,8.6 22.7,8.4 23.1,8 23.2,7.4 23.2,7.1 23.2,6.7 23,6.2 L 22.3,4 21.7,4.2 22.5,6.7 C 22.6,7 22.6,7.2 22.6,7.4 22.5,7.8 22.3,8 21.8,8.2 21.4,8.3 21.1,8.3 20.8,8 20.6,7.8 20.5,7.6 20.4,7.3 L 19.6,4.8 19.2,5 19.9,7.3 c 0.1,0.4 0.3,0.8 0.5,1 z"
   id="path50" />
		<polygon
   style="fill:#00205b"
   points="27.8,6.8 25.5,3.5 24.8,3.6 25,7.8 25.6,7.7 25.4,4.3 27.7,7.6 28.3,7.6 28.1,3.4 27.6,3.4 "
   id="polygon52" />
		
			<rect
   x="30.200001"
   y="3.5999999"
   transform="matrix(0.9924,0.1228,-0.1228,0.9924,0.9327,-3.7051)"
   style="fill:#00205b"
   width="0.60000002"
   height="4.1999998"
   id="rect54" />
		<polygon
   style="fill:#00205b"
   points="33.2,8.4 33.8,8.6 36.5,5 35.9,4.8 33.7,7.9 33.6,4.1 33,3.9 "
   id="polygon56" />
		<polygon
   style="fill:#00205b"
   points="37.9,7.6 38.5,6.5 40.7,7.7 41,7.3 38.3,5.8 36.3,9.5 39,11 39.2,10.5 37,9.3 37.7,8.1 39.7,9.2 39.9,8.7 "
   id="polygon58" />
		<path
   style="fill:#00205b"
   d="m 40.6,12.2 1.2,-1.3 0.9,0.8 c 0.2,0.2 0.3,0.3 0.3,0.4 0.1,0.2 0,0.4 -0.1,0.6 l -0.5,0.5 c -0.1,0.1 -0.2,0.2 -0.2,0.3 0,0 -0.1,0.1 -0.1,0.1 l 0.5,0.5 0.1,-0.1 c 0,-0.1 0,-0.2 0,-0.3 0,-0.1 0.1,-0.2 0.2,-0.3 L 43.3,13 c 0.1,-0.2 0.2,-0.4 0.3,-0.5 0,-0.1 0,-0.3 -0.1,-0.4 0.2,0.1 0.4,0.1 0.6,0 0.2,-0.1 0.4,-0.2 0.5,-0.4 C 44.9,11.3 45,11 44.8,10.6 44.7,10.4 44.5,10.2 44.3,10 L 43,8.7 40.2,11.8 Z m 2.5,-2.8 1,0.9 c 0.1,0.1 0.2,0.3 0.3,0.4 0.1,0.2 0,0.5 -0.2,0.7 -0.2,0.2 -0.4,0.3 -0.6,0.3 -0.2,0 -0.4,-0.1 -0.6,-0.3 l -1,-0.9 z"
   id="path60" />
		<path
   style="fill:#00205b"
   d="m 44.7,16.2 c -0.3,-0.4 -0.3,-0.7 -0.2,-1 0.1,-0.2 0.2,-0.3 0.4,-0.5 l -0.3,-0.5 c -0.4,0.3 -0.6,0.6 -0.7,1 -0.1,0.4 0.1,0.8 0.3,1.2 0.3,0.4 0.6,0.6 0.9,0.8 0.4,0.2 0.7,0.1 1.1,-0.1 0.3,-0.2 0.5,-0.5 0.5,-0.8 0,-0.2 0,-0.4 -0.1,-0.7 l -0.2,-0.5 c -0.1,-0.4 -0.2,-0.6 -0.2,-0.8 0,-0.2 0.1,-0.3 0.2,-0.5 0.2,-0.1 0.3,-0.1 0.5,-0.1 0.2,0 0.4,0.2 0.6,0.5 0.2,0.3 0.3,0.6 0.2,0.9 0,0.1 -0.2,0.3 -0.3,0.4 l 0.3,0.4 c 0.4,-0.3 0.6,-0.6 0.6,-1 0,-0.4 -0.1,-0.7 -0.4,-1.1 -0.3,-0.4 -0.6,-0.6 -0.9,-0.7 -0.3,-0.1 -0.7,0 -1,0.2 -0.3,0.2 -0.4,0.5 -0.4,0.8 0,0.2 0.1,0.4 0.2,0.8 l 0.2,0.5 c 0.1,0.3 0.2,0.5 0.2,0.7 0,0.2 -0.1,0.3 -0.3,0.4 -0.2,0.2 -0.5,0.2 -0.8,0 -0.2,0 -0.3,-0.1 -0.4,-0.3 z"
   id="path62" />
		<polygon
   style="fill:#00205b"
   points="49.8,17.4 45.9,19.1 46.2,19.7 50,17.9 "
   id="polygon64" />
		<polygon
   style="fill:#00205b"
   points="50.3,19.7 50.6,21.1 47.1,22.1 47.2,22.6 50.8,21.6 51.2,23 51.7,22.9 50.7,19.6 "
   id="polygon66" />
		<polygon
   style="fill:#00205b"
   points="52,24.9 51.9,24.2 49.5,26 47.8,26.1 47.9,26.7 49.6,26.6 52.2,28 52.1,27.3 50,26.2 "
   id="polygon68" />
		<polygon
   style="fill:#00205b"
   points="5,36.8 5.2,37.3 7,36.5 7.8,38.4 8.3,38.2 7.4,36.3 8.6,35.8 9.6,37.9 10,37.7 8.8,35 "
   id="polygon70" />
		<path
   style="fill:#00205b"
   d="m 11.8,40 c -0.4,-0.6 -1,-0.8 -1.6,-0.8 -0.5,0 -1,0.2 -1.4,0.6 -0.5,0.4 -0.8,0.8 -0.9,1.3 -0.1,0.5 0,1.1 0.4,1.6 0.4,0.5 1,0.8 1.6,0.8 0.5,0 1,-0.2 1.5,-0.6 0.5,-0.4 0.8,-0.8 0.9,-1.2 0.1,-0.5 0,-1.1 -0.5,-1.7 z m -0.1,1.5 c -0.1,0.4 -0.3,0.7 -0.7,1 C 10.6,42.8 10.2,43 9.8,43 9.4,43 9,42.9 8.7,42.5 8.4,42.1 8.3,41.7 8.4,41.3 c 0.1,-0.4 0.4,-0.7 0.7,-1 0.5,-0.4 0.9,-0.5 1.3,-0.5 0.4,0 0.7,0.2 1,0.6 0.3,0.3 0.4,0.7 0.3,1.1 z"
   id="path72" />
		<path
   style="fill:#00205b"
   d="m 16,44.3 -1.6,2 c -0.2,0.2 -0.4,0.4 -0.6,0.5 -0.3,0.1 -0.7,0.1 -1.1,-0.2 -0.3,-0.3 -0.5,-0.6 -0.4,-0.9 0,-0.2 0.2,-0.5 0.3,-0.7 l 1.6,-2 -0.5,-0.4 -1.5,1.8 c -0.3,0.4 -0.5,0.8 -0.6,1.1 -0.1,0.6 0.1,1.1 0.7,1.5 0.6,0.5 1.1,0.6 1.6,0.3 0.3,-0.1 0.6,-0.4 0.9,-0.8 l 1.5,-1.9 z"
   id="path74" />
		<polygon
   style="fill:#00205b"
   points="18.2,50.3 18.8,50.6 20.6,46.8 20.1,46.5 18.6,49.6 18.2,45.6 17.6,45.3 15.8,49.1 16.2,49.4 17.7,46.3 "
   id="polygon76" />
		<path
   style="fill:#00205b"
   d="m 23.5,47.6 -1.6,-0.3 -0.9,4 1.6,0.4 c 0.7,0.1 1.3,-0.1 1.7,-0.6 0.2,-0.3 0.4,-0.7 0.5,-1.1 0.1,-0.6 0.1,-1.1 -0.1,-1.5 -0.2,-0.5 -0.6,-0.8 -1.2,-0.9 z m 0.8,2.3 c 0,0.1 -0.1,0.3 -0.1,0.4 -0.1,0.3 -0.2,0.5 -0.4,0.6 -0.2,0.2 -0.4,0.3 -0.6,0.3 -0.1,0 -0.3,0 -0.5,0 l -1,-0.2 0.7,-3.2 1,0.2 c 0.4,0.1 0.7,0.3 0.9,0.6 0,0.4 0.1,0.8 0,1.3 z"
   id="path78" />
		<polygon
   style="fill:#00205b"
   points="29.7,48.5 29.7,48 26.6,48 26.7,52.2 29.8,52.2 29.8,51.7 27.2,51.7 27.2,50.3 29.5,50.3 29.5,49.8 27.2,49.8 27.2,48.5 "
   id="polygon80" />
		<path
   style="fill:#00205b"
   d="m 34,47.7 c -0.4,-0.3 -0.9,-0.4 -1.4,-0.3 l -1.6,0.4 1,4.1 1.6,-0.4 c 0.7,-0.2 1.1,-0.6 1.3,-1.3 C 35,49.8 35,49.4 34.9,49 34.7,48.4 34.4,48 34,47.7 Z m 0.2,2.7 c -0.1,0.2 -0.2,0.4 -0.4,0.6 -0.1,0.1 -0.3,0.1 -0.4,0.2 l -1,0.2 -0.8,-3.2 1,-0.2 c 0.4,-0.1 0.8,0 1.1,0.2 0.3,0.2 0.5,0.6 0.6,1.1 0,0.1 0.1,0.3 0.1,0.4 -0.1,0.2 -0.1,0.5 -0.2,0.7 z"
   id="path82" />
		<path
   style="fill:#00205b"
   d="m 38.9,44.8 c 0.1,0.3 0.1,0.5 0.1,0.7 -0.1,0.2 -0.3,0.4 -0.6,0.6 l 0.2,0.3 0.8,-0.5 1.6,2.4 0.5,-0.3 -2.2,-3.4 z"
   id="path84" />
		<path
   style="fill:#00205b"
   d="m 44.2,43.2 c -0.1,0 -0.3,0 -0.5,0.1 0.1,-0.2 0.1,-0.3 0.1,-0.4 0,-0.2 -0.1,-0.4 -0.3,-0.6 -0.2,-0.2 -0.4,-0.3 -0.8,-0.3 -0.3,0 -0.6,0.1 -0.9,0.4 -0.3,0.3 -0.4,0.6 -0.5,0.9 0,0.3 0.1,0.6 0.3,0.8 0.2,0.2 0.4,0.3 0.6,0.3 0.1,0 0.2,0 0.4,-0.1 -0.1,0.2 -0.1,0.5 -0.1,0.7 0,0.2 0.1,0.4 0.3,0.6 0.3,0.3 0.6,0.4 0.9,0.4 0.3,0 0.7,-0.2 1,-0.5 0.3,-0.3 0.5,-0.7 0.5,-1 0,-0.4 -0.1,-0.7 -0.4,-0.9 -0.1,-0.3 -0.3,-0.4 -0.6,-0.4 z m -1.6,0.7 c -0.2,0 -0.3,0 -0.5,-0.2 -0.1,-0.1 -0.2,-0.3 -0.2,-0.4 0,-0.2 0.1,-0.3 0.3,-0.5 0.2,-0.2 0.4,-0.2 0.5,-0.2 0.2,0 0.3,0.1 0.4,0.2 0.1,0.1 0.2,0.3 0.2,0.5 0,0.2 -0.1,0.3 -0.3,0.5 0,0 -0.2,0 -0.4,0.1 z m 1.9,1.2 c -0.2,0.2 -0.4,0.3 -0.6,0.3 -0.2,0 -0.4,-0.1 -0.5,-0.3 -0.2,-0.2 -0.3,-0.4 -0.2,-0.6 0,-0.2 0.1,-0.4 0.3,-0.6 0.2,-0.2 0.4,-0.3 0.6,-0.3 0.2,0 0.4,0.1 0.6,0.3 0.2,0.2 0.3,0.4 0.2,0.6 -0.1,0.2 -0.2,0.4 -0.4,0.6 z"
   id="path86" />
		<path
   style="fill:#00205b"
   d="m 46.8,39.4 c -0.4,-0.3 -0.7,-0.4 -1,-0.5 -0.6,-0.1 -1,0.1 -1.4,0.6 -0.3,0.4 -0.3,0.7 -0.2,1.1 0.1,0.3 0.3,0.6 0.6,0.8 0.3,0.2 0.6,0.3 1,0.3 0.3,0 0.6,-0.2 0.8,-0.6 0.1,-0.2 0.2,-0.3 0.2,-0.5 0,-0.2 0,-0.4 -0.1,-0.6 0.5,0.4 0.7,0.8 0.8,1 0.1,0.3 0,0.5 -0.1,0.7 -0.1,0.1 -0.2,0.2 -0.3,0.2 -0.2,0.1 -0.4,0.1 -0.7,-0.1 l -0.3,0.4 c 0.3,0.2 0.5,0.2 0.8,0.2 0.3,0 0.6,-0.2 0.8,-0.6 0.3,-0.5 0.3,-1 -0.1,-1.6 -0.1,-0.2 -0.4,-0.5 -0.8,-0.8 z m -0.5,1.4 c -0.2,0.2 -0.3,0.4 -0.5,0.4 -0.2,0 -0.4,-0.1 -0.6,-0.2 -0.2,-0.2 -0.4,-0.4 -0.4,-0.6 -0.1,-0.2 0,-0.4 0.1,-0.6 0.1,-0.2 0.3,-0.3 0.5,-0.3 0.2,0 0.4,0 0.7,0.2 0.3,0.2 0.4,0.4 0.4,0.6 -0.1,0.1 -0.1,0.3 -0.2,0.5 z"
   id="path88" />
		<path
   style="fill:#00205b"
   d="M 48.5,36.6 C 48.2,36.3 48,36 47.8,35.7 47.6,35.4 47.5,35.1 47.4,34.9 l -0.4,-0.2 -1.2,2.6 0.5,0.2 0.9,-2.1 c 0.2,0.4 0.4,0.8 0.7,1.2 0.5,0.7 1.1,1.3 1.8,1.7 l 0.2,-0.5 C 49.6,37.5 49.3,37.4 49.2,37.2 49,37.1 48.8,36.9 48.5,36.6 Z"
   id="path90" />
		<path
   style="fill:#00205b"
   d="M 46.2,25.3 C 46.1,24.9 46.1,24.4 46,24 c 0,0 0,0 0,-0.1 C 45.9,23.3 45.7,22.8 45.6,22.2 43.3,14.6 36.2,9 27.8,9 17.5,9 9.2,17.4 9.2,27.7 c 0,0.3 0,0.6 0,0.9 0.4,9.9 8.6,17.8 18.6,17.8 10.3,0 18.7,-8.4 18.7,-18.7 0,-0.4 0,-0.8 -0.1,-1.2 0,-0.2 0,-0.3 0,-0.5 -0.1,-0.2 -0.1,-0.4 -0.2,-0.7 z m -0.4,0.8 c 0.3,0.1 0.2,0.4 0.1,0.5 -0.1,0.1 -0.4,0 -0.4,-0.2 -0.1,-0.3 0,-0.4 0.3,-0.3 z M 45.5,25 c 0.5,0.7 -0.7,0.2 -0.8,-0.1 -0.2,-0.3 0.5,-0.3 0.8,0.1 z m -0.1,2.3 c 0.1,0.2 -0.4,0.3 -0.5,0 -0.2,-0.3 0.2,-0.6 0.5,0 z m -0.8,-0.8 c -0.3,0.2 -0.7,-0.1 -0.6,-0.4 0.1,-0.3 0.3,-0.7 0.6,-0.4 0.4,0.4 0.3,0.6 0,0.8 z m 0.5,-2.3 c -0.3,0 -0.6,-0.2 -0.7,-0.7 -0.1,-0.5 0.4,-0.4 0.7,-0.1 0.2,0.3 0.3,0.8 0,0.8 z m -0.9,-4.1 c 0.3,0.1 0.2,0.4 0,0.5 -0.1,0.1 -0.4,0 -0.4,-0.2 0.1,-0.3 0.2,-0.4 0.4,-0.3 z m 0,1.6 c 0.1,-0.4 0.2,-0.6 0.4,-0.2 0.2,0.4 0.5,0.5 0.2,0.9 -0.2,0.3 -0.6,0.3 -0.9,0.1 -0.2,-0.1 0.3,-0.4 0.3,-0.8 z m -0.4,1.4 c 0.1,0.2 0,0.4 0,0.7 -0.1,0.2 0,0.4 0.1,0.7 0.1,0.3 -0.1,0.4 -0.2,0.3 -0.1,-0.1 -0.3,-0.2 -0.4,-0.2 -0.1,-0.1 -0.2,-0.3 -0.1,-0.5 0.1,-0.2 0,-0.4 -0.1,-0.6 -0.1,-0.2 0.1,-0.5 0.2,-0.5 0.2,-0.2 0.4,-0.1 0.5,0.1 z m 0,2.5 c -0.1,0.2 -0.2,0.3 -0.5,0.2 -0.4,-0.1 -0.5,-0.7 -0.1,-0.8 0.3,0 0.6,0.4 0.6,0.6 z m -0.3,-4.1 c -0.1,0.4 -0.6,0.2 -0.8,0.2 -0.2,0 -0.3,-0.4 -0.1,-0.6 0.1,-0.3 0.3,-0.3 0.6,-0.3 0.2,0 0.5,0.3 0.3,0.7 z m -1.6,2.9 c -0.4,0.2 -0.5,-0.1 -0.5,-0.8 0,-0.7 0.7,-0.5 0.9,-0.1 0.2,0.5 0,0.8 -0.4,0.9 z m 0.2,0.9 c -0.2,0.1 -0.6,0.2 -0.6,-0.1 0,-0.3 0.3,-0.5 0.6,-0.4 0.4,0.2 0.2,0.4 0,0.5 z m -9.3,0.1 c -0.4,0 -1,-0.3 -1,-0.3 -0.4,-0.3 -0.5,-0.7 -0.5,-1.2 0,-0.5 0,-0.9 0,-1.3 0,0 0,0 0,0 0.1,-0.2 0.2,-0.3 0.5,-0.3 0,0 0.4,-0.1 0.5,0.4 0,0.2 0.1,0.3 0.1,0.4 -0.2,0.2 -0.3,0.6 -0.2,0.8 0.1,0.2 0.4,0.2 0.6,-0.2 0.1,-0.1 0.1,-0.3 0.1,-0.4 0,0 0,0 0.1,0 0.5,-0.1 0.6,-0.2 0.8,0.1 0.2,0.4 0.4,0.4 0.7,0.4 0.1,0 0.2,0 0.3,0 -0.1,0.1 -0.1,0.2 -0.2,0.3 -0.3,0.7 -0.4,0.7 -0.7,1 -0.2,0.2 -0.9,0.3 -1.1,0.3 z m 1,0.7 c 0.1,0.2 -0.2,0.2 -0.3,0.3 -0.1,0.1 -0.2,0.2 -0.5,0.2 -0.3,0 -0.3,-0.4 -0.2,-0.5 0,-0.1 0.2,-0.2 0.5,-0.2 0,0 0.5,0.1 0.5,0.2 z m -7.9,-1 c 0.1,0.1 0.1,0.3 0,0.4 -0.1,0.1 -0.2,0.3 -0.2,0.4 0,0.1 0.1,0.2 0,0.3 -0.1,0.1 0,0.3 0.1,0.4 0.1,0.1 0.2,0.5 0,0.6 -0.2,0.1 -0.3,0.4 -0.2,0.5 0.1,0.1 0.1,0.3 0,0.4 -0.1,0.1 -0.1,0.2 0,0.4 0,0.2 0.1,0.6 -0.2,0.6 C 25.1,29 25.2,28.7 25,28.5 24.8,28.3 24.6,28.4 24.4,28.2 24.3,28 24.2,27.7 24.5,27.4 24.8,27.2 25,27.3 25,27 c 0,-0.3 -0.2,-0.5 -0.4,-0.4 -0.2,0.1 -0.6,-0.3 -0.8,0 -0.1,0.1 -0.8,0.5 -1,-0.3 -0.2,-0.8 0.4,-1.2 0.6,-1 0,0 0.3,0.2 0.5,0.2 0.2,-0.1 0.3,-0.1 0.6,0.1 0.3,0.2 0.7,0 0.7,-0.3 0,-0.3 0.2,-0.4 0.2,-0.8 0,-0.3 0.2,-0.4 0.4,-0.4 0.2,0.1 0.3,0.4 0.2,0.6 -0.2,0.1 -0.3,0.3 -0.1,0.4 z m -4.6,0.2 c 0.2,-0.4 0.5,-0.4 0.6,-0.3 0.1,0.1 0.1,0.2 -0.1,0.5 -0.2,0.3 0,0.6 -0.3,0.7 -0.1,0 -0.3,-0.6 -0.2,-0.9 z m 0,-1.6 c 0.1,-0.1 0.3,0 0.4,0.1 0.3,0.2 -0.1,0.5 -0.2,0.3 -0.2,-0.1 -0.3,-0.3 -0.2,-0.4 z m 0.5,-0.5 c -0.3,-0.1 -1.1,0.1 -1.1,0.1 0,0 -0.3,0.2 -0.1,0.5 0.1,0.2 0.2,0.3 0.2,0.5 -0.1,0 -0.5,-0.2 -0.6,-0.2 -0.1,-0.1 -0.3,-0.1 -0.5,-0.2 0,-0.1 0,-0.1 0,-0.2 0,-0.4 -0.1,-0.9 0.2,-1.2 0.3,-0.3 0.6,-0.4 0.8,-0.2 0,0 0,0.1 0.1,0.1 0,0 -0.1,0 -0.1,0 -0.4,0.2 -0.6,0.7 -0.2,0.8 0.2,0 0.6,-0.1 0.7,-0.4 0.1,0.1 0.3,0.2 0.5,0.2 0.7,0 0.9,-0.3 1.1,-0.5 0.2,-0.2 0.5,-0.3 0.7,0 0,0 0,0 0.1,0.1 v 0 c 0,0 0.1,0.1 0.1,0.4 0,0.2 0,0.4 0.2,0.5 0.2,0.1 0.5,0.1 0.6,-0.1 v 0 c 0,0 0.3,-0.2 0.4,0 0,0.2 0,0.4 0,0.5 0,0.1 0,0.1 0,0.2 0,0 0,0 0,0 -0.1,0.4 -0.2,0.6 -0.5,0.6 -0.3,0 -0.9,-0.2 -1.5,-0.4 v 0 c 0,0 -0.4,-0.1 -0.5,-0.4 -0.3,-0.4 -0.4,-0.7 -0.6,-0.7 z m -1.2,2.3 c -0.2,0 -0.6,-0.1 -0.6,-0.3 0,-0.2 0.1,-0.3 0.5,-0.2 0.6,0.2 0.4,0.5 0.1,0.5 z M 16,24.1 c -0.2,0.2 -0.2,0.4 -0.3,0.5 -0.1,0.1 -0.3,0.1 -0.4,0 -0.1,-0.1 -0.1,-0.1 -0.3,-0.1 -0.2,0 -0.3,0 -0.3,-0.1 -0.1,-0.1 0,-0.3 0,-0.4 0.1,-0.1 0.3,-0.1 0.5,-0.1 0.2,0 0.4,-0.1 0.5,-0.2 0.2,-0.1 0.3,-0.1 0.5,0 0.1,0.1 0,0.3 -0.2,0.4 z m 0,1.8 c -0.1,0.1 -0.5,0.2 -0.6,0 -0.2,-0.2 0.1,-0.5 0.3,-0.6 0.2,-0.1 0.3,-0.1 0.5,0.1 0.1,0.1 0,0.3 -0.2,0.5 z m -3.2,-3.4 c 0.1,0.1 0,0.2 -0.1,0.2 -0.1,0 -0.2,0.1 -0.2,0.2 -0.1,0.1 -0.2,0.1 -0.3,0.1 -0.1,0 -0.1,-0.1 -0.2,-0.2 -0.1,-0.1 -0.1,-0.3 0,-0.4 0.1,-0.1 0.2,-0.1 0.3,-0.1 0.2,-0.1 0.5,0.1 0.5,0.2 z m 0,-0.9 c 0.1,0.1 0,0.4 -0.2,0.4 -0.3,0 -0.3,-0.3 -0.3,-0.4 -0.1,-0.2 0.1,-0.4 0.5,0 z m -0.5,2.1 c 0.2,0 0.3,-0.1 0.5,-0.3 0.2,-0.2 0.3,0 0.2,0.1 -0.1,0.1 -0.1,0.2 -0.1,0.3 0,0.1 -0.2,0.2 -0.4,0.2 -0.2,0 -0.3,0.1 -0.5,0.2 -0.2,0.1 -0.4,0 -0.5,-0.1 -0.1,-0.1 -0.1,-0.2 0.1,-0.3 0.3,-0.1 0.5,-0.1 0.7,-0.1 z m 0.2,1.2 c -0.1,0.2 -0.3,0.3 -0.4,0.3 -0.1,0 -0.3,-0.1 -0.2,-0.3 0.1,-0.2 0.2,-0.2 0.4,-0.2 0,0 0.3,0 0.2,0.2 z m -0.8,2 c 0.1,-0.1 0.2,-0.2 0.3,-0.2 0.2,0 0.3,0 0.3,0 0.1,0.1 0,0.3 -0.1,0.4 -0.1,0.1 -0.4,0.2 -0.5,0.1 0,0.1 -0.1,-0.2 0,-0.3 z m 0.6,-0.7 c -0.1,0 -0.4,0 -0.4,-0.1 -0.1,-0.2 0,-0.3 0.1,-0.3 0.1,-0.1 0.3,-0.1 0.5,-0.1 0.1,-0.1 0.2,-0.2 0.3,-0.2 0.1,-0.1 0.3,-0.1 0.4,-0.1 0.1,0 0.2,0.1 0.1,0.3 0,0.1 -0.1,0.2 -0.3,0.4 -0.3,0 -0.6,0 -0.7,0.1 z m 0.7,0.3 c 0,-0.1 0.2,-0.2 0.4,-0.2 0.2,0 0.3,0 0.3,-0.1 0,0 0.2,-0.1 0.2,0.1 0,0.2 -0.2,0.3 -0.3,0.4 -0.1,0.1 -0.4,0.2 -0.5,0.1 -0.2,-0.1 -0.2,-0.2 -0.1,-0.3 z m 0.6,-1.6 C 13.3,25 13.2,24.8 13,24.7 c -0.1,-0.1 -0.1,-0.3 0.1,-0.4 0.1,-0.1 0.2,-0.2 0.3,-0.3 0.1,-0.1 0.3,-0.2 0.5,-0.1 0.1,0 0.2,0.3 0.2,0.5 0,0.2 -0.2,0.4 -0.5,0.5 z m -0.2,-2.5 c 0,-0.2 0.1,-0.3 0.3,-0.3 0,0 0.5,0.1 0.7,0.2 0.2,0.1 0.1,0.3 0,0.6 -0.1,0.2 -0.4,0.1 -0.6,0.2 -0.3,0 -0.2,-0.2 -0.2,-0.4 -0.1,-0.1 -0.2,-0.1 -0.2,-0.3 z m 1,-0.9 c -0.1,0.2 -0.4,0.1 -0.5,0.1 -0.1,0 -0.2,-0.2 -0.1,-0.4 0.1,-0.1 0.2,-0.2 0.3,-0.2 0.2,0.1 0.4,0.3 0.3,0.5 z M 14,18.9 c -0.3,0.1 -0.5,-0.1 -0.5,-0.3 0,-0.2 0.2,-0.4 0.5,-0.3 0.4,0.1 0.3,0.5 0,0.6 z M 13.7,20 c 0,0.1 0.1,0.2 0,0.3 0,0.2 -0.2,0.1 -0.4,0 -0.2,-0.1 -0.3,-0.4 -0.3,-0.7 0.1,-0.2 0.2,-0.2 0.4,-0.1 0.2,0.2 0.3,0.4 0.3,0.5 z m 0.3,5.4 c 0.1,-0.3 0.2,-0.4 0.5,-0.5 0.2,0 0.3,0.1 0.3,0.2 0,0.2 -0.2,0.6 -0.5,0.7 -0.2,0.1 -0.4,-0.1 -0.3,-0.4 z M 14.9,21 c 0,-0.1 0.1,-0.4 0.4,-0.1 0.3,0.3 0.3,0.5 0.6,0.7 0.2,0.2 0.1,0.6 -0.2,0.6 -0.2,0 -0.5,0 -0.6,-0.2 C 15,21.9 15,21.8 14.9,21.7 14.8,21.6 14.8,21.5 14.8,21.4 14.9,21.2 15,21.1 14.9,21 Z M 16,19.7 c 0,0 0.3,0.1 0.5,0.2 0.2,0.1 0.2,0.3 -0.1,0.6 -0.2,0.2 -0.2,0.4 -0.3,0.5 -0.2,0.1 -0.3,-0.2 -0.3,-0.3 0,-0.2 0,-0.3 -0.1,-0.6 0,-0.3 0.2,-0.4 0.3,-0.4 z M 14.9,23 c 0.1,0 0.4,-0.1 0.5,-0.2 0.2,-0.1 0.3,0 0.3,0.1 0,0.1 -0.1,0.2 -0.3,0.2 -0.2,0 -0.2,0.1 -0.3,0.2 -0.2,0.2 -0.4,0.1 -0.4,0 0,0 0,-0.2 0.2,-0.3 z m 1.4,-0.3 c 0.3,-0.1 0.4,-0.3 0.4,-0.4 0,-0.1 0.1,-0.4 0.3,-0.3 0.3,0.2 0,0.7 0,0.7 -0.1,0.2 0,0.5 -0.2,0.5 -0.2,0 -0.4,0 -0.5,-0.1 -0.2,-0.2 -0.2,-0.3 0,-0.4 z m 1.3,-1.3 c -0.2,0.1 -0.5,0 -0.5,0 -0.2,-0.1 -0.3,-0.2 -0.3,-0.3 0,-0.1 0,-0.2 0.2,-0.3 0.2,-0.1 0.3,-0.2 0.4,0 0.1,0.2 0.4,0.4 0.2,0.6 z m 0.3,0.8 c 0.2,0.1 0.1,0.6 -0.2,0.6 -0.3,0 -0.3,-0.3 -0.2,-0.5 0.2,-0.2 0.3,-0.1 0.4,-0.1 z m -1.2,2.2 c 0.1,-0.1 0.4,-0.1 0.5,0 0.2,0.1 0.2,0.1 0.2,0.2 0,0.1 -0.3,0.1 -0.4,0.2 -0.1,0.1 -0.2,0.2 -0.3,0.2 -0.1,0 -0.3,0 -0.2,-0.2 0.1,-0.2 0.1,-0.4 0.2,-0.4 z m 0.5,-1 c 0.1,-0.1 0.2,-0.1 0.4,-0.1 0.2,0 0.5,0.2 0.6,0.3 0,0.1 -0.1,0.2 -0.6,0.2 -0.5,0 -0.5,-0.3 -0.4,-0.4 z m 0.8,-3 c 0,-0.1 0.2,-0.2 0.4,-0.2 0,0 0.5,0.1 0.5,0.2 0.1,0.1 -0.2,0.2 -0.3,0.2 -0.1,0.1 -0.2,0.2 -0.4,0.2 -0.3,0 -0.3,-0.3 -0.2,-0.4 z m 0.1,-3 c 0.1,-0.3 0.2,-0.2 0.4,-0.1 0.1,0.1 0.2,0.7 0.1,0.9 0,0.2 -0.3,0.4 -0.6,0.2 -0.2,-0.2 0,-0.8 0.1,-1 z m 0.4,5.1 c 0.2,-0.1 0.4,-0.1 0.4,0 0,0.2 0,0.2 0,0.2 0,0.2 0,0.4 -0.3,0.5 -0.2,0.1 -0.3,0.1 -0.4,0 0,-0.1 0,-0.2 0,-0.3 0.1,-0.2 0.1,-0.3 0.3,-0.4 z m 0.1,1.5 c 0.2,-0.1 0.4,-0.3 0.4,-0.5 0,-0.2 0.2,-0.2 0.3,-0.1 0.1,0.2 0,0.5 0,0.6 -0.1,0.2 -0.3,0.3 -0.5,0.3 -0.2,0 -0.4,0.1 -0.5,-0.1 -0.1,0 0,-0.1 0.3,-0.2 z M 19,21.7 c -0.2,0.1 -0.4,-0.1 -0.5,-0.2 -0.1,-0.1 0,-0.2 0.1,-0.3 0.1,-0.1 0.2,-0.2 0.3,-0.1 0,0 0.3,0.1 0.5,0.2 0.2,0 0.1,0.2 0,0.2 -0.2,0 -0.2,0.1 -0.4,0.2 z m -0.2,-2.1 c 0,-0.4 0.2,-0.7 0.6,-0.6 0.5,0.1 0.5,0.4 0.2,0.7 -0.3,0.3 -0.8,0.3 -0.8,-0.1 z m 0.7,-2.8 c 0.2,0.1 0.2,0.4 0,0.7 -0.3,0.3 -0.4,0 -0.4,-0.4 0.1,-0.3 0.2,-0.3 0.4,-0.3 z m 0.2,-1.4 c 0.3,-0.4 0.9,0.1 1.1,0.4 0.2,0.3 0,0.5 -0.8,0.6 -0.7,0 -0.6,-0.7 -0.3,-1 z m 0.6,2.4 c 0.4,0 0.2,0.4 0.1,0.8 -0.3,1.2 -0.6,0.1 -0.6,0.1 -0.4,-0.5 0.2,-1 0.5,-0.9 z M 20,21.2 c 0.1,-0.2 0.2,-0.2 0.4,-0.1 0.3,0.1 0.3,0.4 0.1,0.5 -0.3,0.2 -0.6,-0.2 -0.5,-0.4 z m 2.2,-4.3 c -0.1,0.2 -0.5,0.4 -0.7,0.2 -0.3,-0.2 0,-0.5 0.1,-0.8 0.1,-0.2 0.4,-0.2 0.6,0 0.1,0.3 0.2,0.4 0,0.6 z m 0.1,3.4 c 0,0.4 -0.4,0.4 -0.6,0.3 -0.2,-0.2 -0.1,-0.8 -0.1,-1.1 0,-0.3 0.3,-0.3 0.5,-0.1 0.3,0.2 0.2,0.5 0.2,0.9 z m -0.4,-2.5 c 0.3,0.1 0.3,0.3 0.2,0.5 -0.1,0.2 -0.4,0.2 -0.5,0 -0.4,-0.3 0,-0.6 0.3,-0.5 z m -0.1,3.8 c 0.3,-0.1 0.5,0.1 0.5,0.4 0,0.3 -0.2,0.4 -0.4,0.4 -0.1,0.1 -0.5,0 -0.5,-0.3 -0.1,-0.2 0.1,-0.4 0.4,-0.5 z M 23,18.2 c -0.3,0.1 -0.4,-0.6 -0.2,-1 0.1,-0.4 0.5,-0.5 0.6,-0.1 0.3,0.6 0,1 -0.4,1.1 z m -0.1,2.4 c -0.1,-0.2 0,-0.6 0.1,-0.6 0.2,-0.1 0.3,0 0.3,0.2 0.1,0.2 -0.2,0.5 -0.4,0.4 z m 3.8,-3.3 c 0.4,0.6 -0.3,0.9 -0.7,0.9 -0.4,0 0,-0.5 0.1,-0.9 0.1,-0.3 0.4,-0.4 0.6,0 z m -0.3,-1.8 c 0.3,-0.2 0.5,0.2 0.6,0.5 0.1,0.4 0.1,0.4 -0.3,0.4 -0.4,0 -0.4,-0.1 -0.4,-0.4 -0.1,-0.2 -0.2,-0.3 0.1,-0.5 z m -0.4,3 c 0.1,0 0.3,0.2 0.2,0.3 C 26.1,19 26,19 25.8,19 25.6,19 25.5,18.8 25.6,18.6 25.7,18.5 25.9,18.5 26,18.5 Z M 24.9,17 c -0.5,0.1 0,-0.8 0.2,-1.1 0.2,-0.3 0.4,-0.1 0.5,0.2 0.2,0.7 -0.2,0.8 -0.7,0.9 z m 0.5,1.2 c -0.2,0.3 -0.5,0.3 -0.8,-0.1 -0.4,-0.4 0.5,-0.7 0.8,-0.6 0.2,0 0.2,0.3 0,0.7 z M 25.2,20 c -0.3,0.1 -0.5,-0.1 -0.5,-0.3 0,-0.2 0.2,-0.4 0.5,-0.3 0.4,0.1 0.3,0.5 0,0.6 z m -0.8,1.2 c 0.4,0.1 0.2,0.5 0.1,0.6 -0.2,0.1 -0.5,0 -0.5,-0.3 -0.1,-0.3 0.1,-0.4 0.4,-0.3 z M 24,19.6 c 0.2,-0.1 0.3,0 0.3,0.2 0.1,0.3 -0.2,0.5 -0.4,0.4 -0.1,-0.2 0,-0.6 0.1,-0.6 z m 0.4,-0.7 c -0.2,0 -0.3,-0.1 -0.3,-0.2 0,-0.2 0.1,-0.2 0.3,-0.2 0.2,0 0.3,0.2 0.3,0.3 -0.1,0 -0.2,0 -0.3,0.1 z m -0.1,-3.8 c -0.6,-0.1 -0.5,-0.4 -0.4,-0.7 0.2,-0.3 0.5,-0.5 0.8,-0.3 0.8,0.6 0.3,1.1 -0.4,1 z m -0.2,0.5 c 0.2,0 0.3,0.1 0.4,0.3 0.1,0.3 -0.1,0.4 -0.3,0.5 -0.2,0.1 -0.5,0 -0.6,-0.2 -0.1,-0.2 0,-0.4 0.1,-0.5 0.1,0 0.2,-0.1 0.4,-0.1 z m 1.8,7.7 c -0.2,0.1 -0.3,-0.1 -0.3,-0.2 0,-0.1 0.1,-0.3 0.2,-0.3 0.3,0.1 0.3,0.4 0.1,0.5 z m 0,-1.8 c -0.1,-0.2 0,-0.5 0.2,-0.4 0.3,0.2 0.2,0.7 0.1,0.7 -0.1,0.1 -0.2,-0.1 -0.3,-0.3 z m 0.3,-1 c -0.4,0.1 -0.5,-0.3 -0.4,-0.6 0.1,-0.3 0.2,-0.4 0.4,-0.3 0.1,0 0.1,0.1 0.4,0.2 0.3,0.2 0.1,0.6 -0.4,0.7 z m 0.7,-1.9 c 0.2,-0.3 0.5,-0.3 0.6,0 0.2,0.5 -0.3,0.8 -0.7,0.8 -0.4,-0.1 -0.1,-0.5 0.1,-0.8 z m 3.3,-2.1 c 0.1,0.4 0,0.7 -0.3,0.8 -0.1,0.1 -0.2,-0.2 -0.3,-0.4 v 0 c 0,0 -0.1,-0.4 -0.5,-0.3 -0.4,0.2 -0.5,-0.5 -0.5,-0.9 0,-0.4 0.2,-0.6 0.5,-0.5 0.4,0.1 0.3,0.6 0.3,0.7 0,0.2 0.3,0.1 0.3,0.1 v 0 c 0.1,0.1 0.4,0 0.5,0.5 z m 10.5,2 c 0.2,0.2 0.2,0.4 0.1,0.6 -0.1,0.2 -0.4,0.2 -0.7,0.1 -0.2,-0.1 -0.4,-0.5 -0.2,-0.7 0.1,-0.4 0.6,-0.3 0.8,0 z m -0.5,-1.7 c 0.1,-0.1 0.3,-0.1 0.4,0.1 0,0.2 0,0.3 -0.2,0.4 0,0 -0.2,0.1 -0.3,0 -0.1,-0.1 0,-0.4 0.1,-0.5 z m -0.1,4 c 0.1,-0.2 0.3,-0.2 0.4,0.1 0.2,0.4 0,0.7 -0.4,0.6 -0.3,-0.2 -0.1,-0.6 0,-0.7 z m -0.2,-0.6 c -0.5,0.3 -0.7,0 -0.7,-0.5 0,-0.5 0.2,-0.5 0.5,-0.4 0.5,0.2 0.7,0.6 0.2,0.9 z m -0.3,-2.8 c -0.1,0.5 -0.4,0.1 -0.7,0 -0.3,-0.2 -0.2,-0.4 0,-0.8 0.2,-0.4 0.6,-0.5 0.9,-0.1 0.3,0.4 -0.1,0.4 -0.2,0.9 z m -1,-1.2 c -0.2,0.1 -0.5,-0.1 -0.4,-0.3 0.1,-0.2 0.2,-0.2 0.4,-0.1 0.1,0.1 0.2,0.3 0,0.4 z M 38.5,18 c 0.3,0 0.4,0.2 0.5,0.4 0,0 0.1,0.3 -0.2,0.3 -0.3,0 -0.6,-0.1 -0.6,-0.4 -0.1,-0.1 0,-0.4 0.3,-0.3 z m -0.9,2.8 c -0.2,-0.2 0,-0.5 0.2,-0.5 0.6,0.2 0.9,0.7 0.6,1.3 -0.2,0.6 -0.6,0.5 -0.5,0.1 0,-0.3 -0.1,-0.7 -0.3,-0.9 z m -0.3,2.4 c 0.1,-0.1 0.3,-0.1 0.4,0 0.1,0.3 -0.1,0.4 -0.3,0.4 -0.3,-0.1 -0.2,-0.3 -0.1,-0.4 z m -0.1,-0.4 c -0.2,-0.1 0,-0.3 0.1,-0.3 0.1,-0.1 0.3,0 0.3,0.1 0,0.3 -0.2,0.3 -0.4,0.2 z m 1,-3.5 c 0.1,0.4 -0.3,0.5 -0.8,0.4 -0.6,-0.2 0.1,-0.9 0.3,-1 0.3,-0.1 0.4,0.2 0.5,0.6 z m -1,1.9 c 0.3,0.5 0.1,0.9 -0.5,1 -0.5,0.1 -0.6,-0.3 -0.4,-0.4 0.2,-0.2 0.2,-0.2 0.4,-0.6 0.2,-0.2 0.4,-0.1 0.5,0 z m -0.7,-1.5 c 0,0.3 -0.2,0.4 -0.6,0.2 -0.4,-0.2 -0.5,-0.5 -0.4,-0.8 0.1,-0.3 0.3,-0.4 0.6,-0.4 0.5,0.2 0.4,0.8 0.4,1 z M 35.4,18 c -0.2,0.1 -0.4,0.1 -0.5,0.2 -0.1,0.1 -0.2,0.2 -0.3,0.3 -0.1,0.1 -0.3,0.2 -0.4,0.2 -0.1,0 -0.2,-0.1 -0.2,-0.3 0,-0.1 0.1,-0.3 0.3,-0.5 0.2,-0.3 0.6,-0.3 0.7,-0.4 0.2,0 0.5,0 0.5,0.1 0.1,0.2 0,0.4 -0.1,0.4 z m -1.2,-2 c 0.2,-0.2 0.4,0 0.4,0.2 0,0 0.3,0.6 -0.2,0.9 C 33.9,17.5 34,17 34,17 c 0.2,-0.5 0,-0.8 0.2,-1 z M 34,15.4 c -0.4,-0.3 0,-0.6 0.2,-0.7 0.3,-0.2 0.4,-0.1 0.6,0.1 0.6,0.5 -0.4,0.8 -0.8,0.6 z m 0.2,-1.2 c -0.6,0 -0.6,-0.2 -0.3,-0.8 0.3,-0.5 0.6,-0.3 0.8,-0.1 0.5,0.4 0.1,0.9 -0.5,0.9 z m -0.3,6.9 c 0.4,0.3 -0.1,0.9 -0.4,0.8 -0.3,-0.1 -0.3,-0.5 -0.1,-0.7 0.2,-0.2 0.3,-0.3 0.5,-0.1 z m -1.8,0.4 c -0.4,-0.3 0.6,-1 0.9,-1.3 0.3,-0.3 0.6,0 0.3,0.3 -0.2,0.2 -0.4,0.3 -0.3,0.6 0,0.7 -0.6,0.8 -0.9,0.4 z m -0.3,-3.6 c -0.3,-0.3 0.1,-0.5 0.3,-0.6 0.3,-0.1 0.5,0 0.7,0.1 0.2,0.1 0.2,0.4 -0.1,0.6 -0.3,0.3 -0.6,0.2 -0.9,-0.1 z m 0.9,1.6 c -0.3,0.1 -0.5,-0.4 -0.4,-0.6 0.1,-0.2 0.3,-0.3 0.5,-0.4 0.3,-0.1 0.2,0 0.6,0.2 0.3,0.2 0.3,0.6 0,0.6 -0.3,0.1 -0.4,0.2 -0.7,0.2 z m 0.8,-2.6 C 33.3,17 33.1,16.8 33,16.7 c -0.1,-0.1 0.1,-0.3 0.1,-0.5 0.1,-0.2 0.5,-0.2 0.5,0 0.1,0.3 0.1,0.5 -0.1,0.7 z m -0.9,-3.2 c -0.4,-0.1 -0.4,-0.6 -0.2,-0.9 0.1,-0.3 0.3,-0.4 0.7,-0.2 0.3,0.1 0.4,0.3 0.4,0.6 0,0.4 -0.4,0.5 -0.9,0.5 z m 0.1,0.7 c 0.4,0 0.7,-0.2 0.6,0.5 -0.2,0.7 -0.4,0.6 -0.8,0.3 -0.4,-0.2 -0.6,-0.4 -0.6,-0.7 0,-0.3 0.5,-0.1 0.8,-0.1 z m -0.5,1.1 c 0,0 0.3,0.1 0.3,0.5 0,0.4 -0.2,0.7 -0.5,0.8 -0.3,0.1 -0.3,-0.5 -0.3,-0.9 0.1,-0.2 0.2,-0.4 0.5,-0.4 z m -0.7,-1.4 c -0.3,0 -0.5,-0.1 -0.3,-0.5 0.2,-0.4 0.5,-0.4 0.6,-0.2 0.4,0.8 -0.3,0.7 -0.3,0.7 z m -0.2,1.3 c 0,0.3 0,0.6 -0.4,0.5 -0.3,-0.1 -0.5,-0.1 -0.5,-0.4 0,-0.2 0.3,-0.3 0.3,-0.5 0,-0.2 0,-0.6 0.3,-0.4 0.3,0.1 0.3,0.6 0.3,0.8 z m -0.1,2 c -0.2,0.2 -0.5,-0.3 -0.4,-0.7 0.1,-0.4 0.3,-0.5 0.4,-0.4 0.3,0.3 0.2,0.9 0,1.1 z M 30.4,14.1 C 30,14 30,13.4 30.1,13.2 c 0.2,-0.1 0.4,-0.1 0.5,0.1 0.3,0.4 0.1,0.9 -0.2,0.8 z M 30.2,19 c -0.3,0.1 -0.3,0.4 -0.6,0.5 -0.3,0.1 -0.1,-0.6 0.1,-1 0.2,-0.4 0.5,-0.2 0.6,0 0.1,0.1 0.2,0.3 -0.1,0.5 z m -1.3,-1 c 0.1,-0.1 0.2,-0.1 0.3,0.1 0,0 0.1,0.1 -0.1,0.4 -0.2,0.3 -0.4,0.5 -0.7,0.5 -0.3,0 -0.2,-0.5 0,-0.6 0.3,-0.1 0.3,-0.3 0.5,-0.4 z m -1.2,-0.1 c -0.4,0 -0.4,-0.5 -0.2,-0.7 0.2,-0.3 0.3,-0.2 0.7,-0.1 0.2,0.1 0.4,0.2 0.4,0.5 -0.1,0.2 -0.5,0.3 -0.9,0.3 z M 27.6,15.1 C 27.8,14.9 28,15 28.1,15 c 0.2,0.1 0.3,0.6 0.1,0.9 -0.2,0.3 -0.5,0.2 -0.6,-0.1 -0.2,-0.2 -0.2,-0.5 0,-0.7 z M 27.5,14.5 C 27,14.7 27,14.3 27.1,13.8 c 0.2,-0.5 0.2,-0.4 0.7,-0.5 0.4,-0.1 0.4,0.1 0.5,0.5 0.1,0.4 -0.3,0.5 -0.8,0.7 z m -0.6,7 c 0,-0.2 0.1,-0.1 0.3,-0.1 0.1,0 0.2,0.2 0.2,0.4 0,0.3 -0.2,0.5 -0.3,0.5 -0.2,0 -0.2,-0.2 -0.2,-0.3 0,-0.1 0,-0.3 0,-0.5 z M 27.2,20 c -0.2,-0.2 0.1,-0.3 0.3,-0.4 0.2,-0.1 0.3,-0.1 0.5,0.1 0.4,0.3 0.4,0.4 0.3,0.6 0,0.1 -0.2,0.1 -0.6,0.2 -0.3,0 -0.3,-0.4 -0.5,-0.5 z m 0.7,1.2 c 0,-0.2 0.1,-0.2 0.2,-0.3 0.2,-0.1 0.3,0 0.4,0.1 0.1,0.1 0.2,0.3 0.3,0.3 0.2,0.1 0.3,0 0.3,0.3 0,0.2 -0.4,0.3 -0.5,0.3 -0.2,0 -0.4,-0.1 -0.6,-0.2 -0.2,0 -0.2,-0.3 -0.1,-0.5 z m 0.8,-0.8 c -0.1,-0.3 0,-0.6 0.3,-0.6 0.3,0.1 0.3,0.3 0.6,0.2 0.3,0 0.4,0.2 0.3,0.3 -0.1,0.1 -0.2,0.1 -0.5,0.3 -0.3,0.2 -0.5,0.1 -0.7,-0.2 z m 1.1,1.4 c 0.3,-0.3 0.1,-0.7 0.4,-0.8 0.4,-0.2 0.6,0.1 0.7,0.4 0.1,0.3 0.2,0.5 -0.4,0.9 -0.6,0.4 -1,-0.2 -0.7,-0.5 z m 0.8,-1.5 c -0.3,-0.3 -0.3,-0.7 -0.1,-0.9 0.2,-0.2 0.3,-0.1 0.4,0.1 0,0 0.1,0.3 0.2,0.6 0,0.3 -0.2,0.4 -0.5,0.2 z M 31,18.1 c 0.3,-0.3 0.5,0.1 0.6,0.4 0,0 0.1,0.5 0.1,0.7 0,0.3 -0.1,0.4 -0.5,0.1 -0.2,-0.4 -0.5,-1 -0.2,-1.2 z m 0.2,2.6 c 0.1,-0.1 0.2,-0.3 0.3,-0.5 0,-0.2 0.2,-0.3 0.3,-0.2 0.2,0.3 -0.1,0.7 -0.3,0.9 -0.3,0.2 -0.4,0 -0.3,-0.2 z m 3.4,4.7 c 0.2,0 0.4,0.2 0.2,0.4 -0.2,0.2 -0.6,0.1 -0.6,-0.1 0,-0.2 0.2,-0.3 0.4,-0.3 z m -0.4,-2.3 c -0.1,-0.2 -0.1,-0.4 0,-0.8 0.1,-0.4 0.3,-0.6 0.7,-0.3 0.3,0.3 0.1,1 0.1,1 -0.1,0.2 -0.6,0.3 -0.8,0.1 z m 0.2,-2.6 c 0,-0.4 0.2,-0.6 0.5,-0.5 0.7,0.2 0.6,0.7 0.2,1 -0.3,0.3 -0.7,-0.1 -0.7,-0.5 z m 1.1,0.4 c 0.1,-0.2 0.3,-0.2 0.4,-0.1 0.7,0.6 0,0.9 -0.4,0.9 -0.4,-0.1 -0.1,-0.5 0,-0.8 z m 0,1.1 c 0.3,0.1 0.2,0.3 0.1,0.5 -0.2,0.1 -0.3,-0.1 -0.3,-0.2 0,-0.2 0.1,-0.4 0.2,-0.3 z m -0.1,3.5 c 0,0 0.3,-1 0.6,-1.4 0,0 0,-0.1 0.1,-0.1 0.2,0 0.3,0 0.4,-0.1 0.5,-0.1 0.7,-0.2 0.8,0.2 0.2,0.4 0.6,0.8 1.2,0.6 v 0 c -0.1,0 -0.2,0.1 -0.3,0.1 -0.8,0.3 -0.8,0.3 -1.4,0.5 -0.6,0.1 -0.3,0.1 -1.2,0.2 -0.1,0 -0.1,0 -0.2,0 z m 2.7,-1.6 c 0.1,-0.3 0.6,-0.4 0.8,-0.2 0,0 0.1,0.2 0,0.4 -0.2,0.3 -1,0.1 -0.8,-0.2 z m 0.7,-1.2 c -0.3,0.1 -0.5,-0.1 -0.5,-0.3 0,-0.2 0.2,-0.4 0.5,-0.3 0.4,0.1 0.3,0.5 0,0.6 z m 0.1,-1.4 c -0.2,-0.2 0,-0.6 0.4,-0.3 0.8,0.7 0.4,1.3 0.1,1.1 -0.2,-0.1 -0.3,-0.6 -0.5,-0.8 z m 0.7,1.4 c 0.3,-0.2 0.3,-0.5 0.6,-0.4 0.2,0 0.3,0.2 0.5,0.5 0.2,0.2 0,0.4 -0.4,0.4 -0.4,0 -0.7,0.2 -0.9,0 -0.2,-0.3 -0.1,-0.4 0.2,-0.5 z m 1,1 c 0.4,0.1 0.5,0.6 0,0.5 -0.5,0 -0.9,0 -0.9,-0.2 0.1,-0.2 0.5,-0.4 0.9,-0.3 z m -0.2,1 c 0,0 0.4,-0.1 0.6,0.2 0.1,0.3 -0.1,0.4 -0.5,0.4 C 40,25.1 40.2,24.7 40.4,24.7 Z M 41,17.9 c 0,-0.3 -0.1,-0.9 0.3,-0.6 0.4,0.3 1,1.5 0.1,1.2 C 41,18.4 41,18.3 41,17.9 Z m 0.5,3.4 c 0.4,0.5 0.3,1.1 0,1.2 -0.4,0.1 -0.5,-0.6 -0.5,-1 0,-0.5 0.4,-0.4 0.5,-0.2 z m 0,-1.1 c 0.2,-0.1 0.4,-0.1 0.5,0.1 0.2,0.3 0,0.8 -0.3,0.7 -0.3,-0.1 -0.4,-0.7 -0.2,-0.8 z m 0.6,2.2 c 0,-0.4 0.2,-0.3 0.4,-0.2 0.3,0.1 0.3,0.5 0,0.7 -0.2,0.2 -0.4,0 -0.4,-0.5 z M 43,17.7 c 0.2,0.2 0.3,0.5 0,0.6 -0.3,0.1 -0.8,-0.2 -0.7,-0.5 0.1,-0.3 0.4,-0.3 0.7,-0.1 z m 0.5,1.8 c 0.2,0.3 0,0.5 -0.5,0.3 -0.2,-0.1 -0.5,-0.1 -1.1,-0.1 -0.6,0 -0.5,-0.4 -0.3,-0.5 0.3,-0.1 0.5,-0.1 0.8,-0.2 0.6,-0.3 0.9,0.2 1.1,0.5 z m -1.6,-2.9 c 0.2,-0.1 0.3,0 0.3,0.2 0.1,0.3 -0.2,0.5 -0.4,0.4 -0.2,-0.1 -0.1,-0.5 0.1,-0.6 z m -2.4,-1.8 c 0.7,-0.1 0.8,0.1 0.7,0.3 0,0.2 -0.5,0.1 -0.5,0.3 0,0.2 0.4,0.5 0.6,0.3 0.2,-0.2 0.7,-0.3 0.8,0 0.2,0.3 -0.4,0.7 -0.8,0.6 -0.2,-0.1 -0.3,-0.2 -0.9,-0.4 -0.5,-0.3 -0.6,-1 0.1,-1.1 z m -1.4,-0.6 c 0.1,-0.1 0.1,-0.3 0.1,-0.4 0,-0.1 0.2,-0.3 0.4,-0.3 0.2,0 0.3,0.2 0.4,0.4 0.1,0.2 0.1,0.5 -0.1,0.7 -0.2,0.2 -0.4,0.2 -0.6,0.1 -0.2,-0.1 -0.3,-0.3 -0.2,-0.5 z m -0.5,3.3 c -0.4,-0.1 -0.7,-0.3 -0.5,-0.5 0.2,-0.1 0.5,-0.3 0.8,-0.1 0.6,0.3 0.1,0.6 -0.3,0.6 z m 0,-2.8 c 0,0.1 0.2,0.3 0.2,0.4 0.1,0.1 0.1,0.3 -0.1,0.5 -0.2,0.2 -0.2,0.3 -0.2,0.6 0,0.3 -0.3,0.4 -0.4,0.4 -0.1,0 -0.3,-0.1 -0.2,-0.4 0,-0.2 0.1,-0.4 0.3,-0.6 0.2,-0.2 0.2,-0.4 0.2,-0.7 -0.1,-0.4 0.2,-0.4 0.2,-0.2 z m -0.8,-1.9 c 0.2,-0.4 0.5,-0.6 0.6,-0.4 0.2,0.5 -0.3,1.1 -0.3,1.1 -0.3,0.7 -0.5,-0.3 -0.3,-0.7 z m 0.3,5 c 0.4,0.2 0.3,0.8 -0.2,0.8 -0.5,0 -0.7,-0.5 -0.5,-0.8 0.3,-0.2 0.4,-0.2 0.7,0 z M 36.2,12 c 0.2,0.1 0.3,0.5 0,0.8 -0.4,0.3 -0.7,0 -0.7,-0.4 0,-0.4 0.4,-0.7 0.7,-0.4 z m -0.4,1.7 c 0.3,-0.1 0.4,0 0.5,0.1 0.1,0.2 0.1,0.8 -0.2,1 -0.3,0.2 -0.6,0 -0.6,-0.3 0,-0.4 0.1,-0.7 0.3,-0.8 z m 0.2,2.5 c 0.2,0.5 -0.2,0.6 -0.5,0.8 -0.2,0.3 -0.6,0.2 -0.5,-0.1 0.1,-0.3 0.1,-0.5 0.1,-0.8 C 35,16 35,15.7 35.2,15.7 c 0.3,-0.2 0.6,0 0.8,0.5 z m -1.4,-5 c 0.3,-0.2 0.5,-0.1 0.6,0.1 0.1,0.2 0.1,0.9 -0.3,1.2 -0.4,0.3 -0.7,0.1 -0.8,-0.4 0.1,-0.4 0.2,-0.7 0.5,-0.9 z m -1.2,-0.5 c 0,0 0.1,-0.1 0.3,-0.1 0.2,0 0.3,0.1 0.3,0.3 0.1,0.2 -0.1,0.4 -0.2,0.5 -0.2,0.1 -0.4,0 -0.5,-0.2 -0.1,-0.2 0,-0.4 0.1,-0.5 z m -0.3,0.9 c 0.1,0.1 0.2,0.3 0,0.4 -0.2,0.1 -0.3,0.1 -0.5,-0.1 0,0 -0.2,-0.1 0,-0.3 0.2,-0.1 0.4,-0.1 0.5,0 z m -1,-1.4 c 0.4,0 0.6,0 0.7,0.3 0,0.3 0,0.4 -0.2,0.6 -0.3,0.2 -0.7,0.5 -0.8,0.1 -0.1,-0.3 -0.1,-1 0.3,-1 z m -0.4,1.7 c 0.3,0.4 0.1,0.7 -0.2,1 -0.3,0.3 -0.5,-0.1 -0.7,-0.4 -0.2,-0.3 -0.2,-0.5 0.2,-0.7 0.5,-0.2 0.5,-0.2 0.7,0.1 z M 30.8,10 c 0.2,0 0.3,0 0.5,0.2 0.2,0.2 0.1,0.4 -0.1,0.4 -0.2,-0.1 -0.4,0.1 -0.6,0.2 -0.2,0 -0.2,-0.1 -0.3,-0.3 -0.2,-0.3 0.3,-0.5 0.5,-0.5 z m -0.5,1.1 c 0.2,0.1 0.2,0.2 0.2,0.4 0,0.2 -0.2,0.3 -0.3,0.5 -0.1,0.2 -0.1,0.3 -0.1,0.4 0,0.2 -0.2,0.4 -0.3,0.4 -0.1,0 -0.2,0 -0.3,-0.1 -0.1,-0.1 -0.1,-0.3 -0.1,-0.6 0,-0.3 0.3,-0.6 0.4,-0.7 0.2,-0.2 0.4,-0.3 0.5,-0.3 z m -1,-1.3 c 0.1,-0.1 0.3,-0.1 0.4,0.1 0,0.2 0,0.3 -0.2,0.4 0,0 -0.2,0.1 -0.3,0 -0.1,-0.1 0,-0.4 0.1,-0.5 z m -0.2,4.3 c 0.1,-0.3 0.3,-0.5 0.5,-0.3 0.5,0.4 0.2,0.9 -0.1,1 -0.3,0.1 -0.4,-0.4 -0.4,-0.7 z m -1.3,-2.4 c 0,0 0.8,-0.4 0.5,-0.6 C 28,11 28.1,10.2 28.2,9.8 c 0.1,-0.4 0.4,-0.3 0.5,-0.2 0.2,0.1 0.1,0.6 0.1,0.9 0,0.3 0,0.4 -0.1,0.6 -0.1,0.2 -0.1,0.2 0.2,0.3 0.4,0.1 -0.1,0.6 -0.3,0.8 -0.2,0.1 -0.3,0.7 -0.7,0.4 -0.4,-0.3 -0.3,-0.7 -0.1,-0.9 z M 27,9.7 c 0.2,-0.3 0.5,-0.2 0.6,0.1 0.1,0.3 0.1,0.5 -0.1,0.7 -0.2,0.2 -0.3,0.1 -0.4,0 -0.2,0 -0.2,-0.5 -0.1,-0.8 z m 0,1.4 c 0.1,0.1 0.1,0.3 -0.1,0.6 -0.2,0.3 -0.2,0.4 -0.1,0.9 0.1,0.5 -0.1,0.8 -0.5,0.5 C 25.9,12.8 25.8,12.4 26,12.2 26.2,12 26.2,11.6 26.4,11.3 26.6,11 26.9,10.8 27,11.1 Z M 25.9,9.7 c 0.3,-0.2 0.4,0.3 0.4,0.6 0.1,0.3 -0.1,0.3 -0.2,0.3 -0.8,0 -0.5,-0.7 -0.2,-0.9 z m 0.3,3.9 c 0.4,0.5 0.3,0.7 -0.2,0.7 -0.5,0 -1,-0.3 -0.6,-0.7 0.4,-0.3 0.6,-0.2 0.8,0 z m -0.9,-0.9 c -0.1,0.1 -0.3,0.4 -0.4,0.6 -0.1,0.2 -0.2,0.2 -0.4,0.1 -0.1,-0.1 -0.1,-0.3 0.1,-0.4 0.2,-0.1 0.2,-0.3 0.2,-0.4 0,-0.3 0.3,-0.4 0.4,-0.3 0.1,0 0.3,0.1 0.1,0.4 z M 25,9.9 c 0.2,0.1 0.2,0.2 0.2,0.4 0,0 0,0.2 -0.2,0.2 -0.2,-0.1 -0.3,-0.3 -0.3,-0.4 0,-0.2 0.1,-0.3 0.3,-0.2 z m -0.3,1.4 c 0.4,0.1 0.3,0.5 0.1,0.7 -0.2,0.2 -0.4,-0.1 -0.4,-0.3 0,-0.2 0.1,-0.5 0.3,-0.4 z m -0.5,1.5 c -0.1,0.1 -0.4,0 -0.4,-0.2 0,-0.2 0.1,-0.3 0.3,-0.2 0.4,0 0.3,0.3 0.1,0.4 z m -0.6,-2.5 c 0.1,-0.2 0.4,-0.3 0.5,0.1 0,0.2 0.2,0.6 0,0.7 -0.2,0.1 -0.4,0 -0.5,-0.1 0,-0.2 -0.1,-0.5 0,-0.7 z m -1,0 c 0.3,-0.2 0.5,0.2 0.5,0.4 0,0 0.1,0.5 0,0.7 0,0.3 -0.2,0.4 -0.4,0 -0.2,-0.3 -0.3,-0.9 -0.1,-1.1 z m 0.5,2.5 c 0,0 0.1,0.2 0.5,0.4 0.4,0.3 -0.1,0.6 -0.4,0.6 -0.3,0 -0.4,-0.1 -0.7,0.1 -0.3,0.2 -0.8,0.3 -0.7,-0.2 0,-0.6 0.5,-0.6 0.6,-0.8 0.1,-0.2 0.6,-0.4 0.7,-0.1 z M 22,11 c 0.6,1.2 -0.2,1.5 -0.2,1.1 0,-0.3 -0.2,-0.9 -0.3,-1.2 0,-0.4 0.3,-0.4 0.5,0.1 z m -0.8,4.3 c 0.1,-0.4 0.2,-0.4 0.4,-0.5 0.4,-0.2 0.8,-0.2 1.1,0.1 0.3,0.2 -0.1,0.4 -0.3,0.7 -0.2,0.3 -0.4,0 -0.8,0.1 -0.4,0.2 -0.5,0 -0.4,-0.4 z m -0.2,5 c -0.3,0.5 -0.8,0.2 -0.9,-0.1 -0.1,-0.3 0.2,-0.7 0.6,-0.6 0.4,0.1 0.6,0.3 0.3,0.7 z m -0.4,-9.1 c 0.1,-0.1 0.2,-0.2 0.4,-0.1 0.2,0.2 0.2,0.3 0.1,0.5 0,0 -0.1,0.2 -0.3,0.1 -0.2,-0.1 -0.3,-0.3 -0.2,-0.5 z m -0.1,1.4 c 0.2,-0.2 0.3,-0.1 0.4,0.1 0,0 0.2,0.6 0.2,0.8 0,0.2 -0.2,0.3 -0.5,0.3 -0.3,0 -0.3,-0.2 -0.5,-0.5 -0.2,-0.2 0,-0.3 0.2,-0.4 0.1,0 0,-0.1 0.2,-0.3 z m -0.4,-1.1 c 0.1,0.2 0.1,0.6 -0.1,0.8 -0.2,0.2 -0.6,-0.3 -0.6,-0.5 0,-0.2 0.5,-0.5 0.7,-0.3 z M 19.7,14 c 0.4,0.1 0.6,0.4 0.3,0.8 -0.3,0.3 -0.4,-0.2 -0.5,-0.3 -0.2,-0.3 -0.2,-0.6 0.2,-0.5 z m -1.1,-1.8 c 0.6,-0.1 0.9,0.7 0.6,1 -0.3,0.3 -0.6,0.4 -0.7,0 -0.2,-0.3 -0.6,-0.9 0.1,-1 z m -0.1,3.7 c 0,0.3 -0.2,0.7 -0.6,0.7 -0.3,0.1 -0.3,-0.2 -0.3,-0.5 0,-0.3 0,-0.5 0.1,-0.8 0.1,-0.2 0.2,-0.2 0.4,-0.2 0.6,0 0.4,0.5 0.4,0.8 z m -0.7,-2.8 c 0.3,0.4 0.5,0.9 0,0.9 -0.5,0 -0.6,-0.3 -0.5,-0.6 -0.1,-0.6 0.1,-0.7 0.5,-0.3 z m -0.5,5.5 c 0.2,0.1 0.3,0.8 -0.1,0.6 -0.3,-0.1 -0.5,0.1 -0.7,0 -0.2,-0.1 -0.1,-0.3 0.2,-0.5 0.4,-0.3 0.6,-0.1 0.6,-0.1 z M 17,17.7 c 0,0.2 0,0.3 -0.4,0.4 -0.4,0.1 -0.1,-0.5 0,-0.8 0.1,-0.3 0.3,-0.2 0.4,-0.1 0,0.1 0,0.3 0,0.5 z m -1,-3.5 c 0.1,-0.2 0.4,-0.3 0.6,-0.1 0.4,0.2 0.4,0.9 0,0.9 -0.4,0 -0.7,-0.6 -0.6,-0.8 z m 0.6,1.6 c 0.2,0.1 0.4,0.6 0,0.8 -0.4,0.3 -0.7,0 -0.7,-0.4 0,-0.4 0.4,-0.7 0.7,-0.4 z m -1.1,-1 c 0.3,0.1 0.2,0.4 0.1,0.5 -0.1,0.1 -0.4,0 -0.4,-0.2 0,-0.3 0.1,-0.4 0.3,-0.3 z m -0.4,3.1 c 0.1,-0.2 0.2,-0.5 0.1,-0.8 -0.1,-0.4 -0.1,-0.5 0.2,-0.2 0.3,0.3 0.4,0.6 0.4,0.6 0.1,0.3 0.1,0.5 -0.3,0.6 -0.4,0.1 -0.5,0 -0.4,-0.2 z M 14.9,19 c 0.2,0 0.2,0.2 0.2,0.5 0,0.3 -0.1,0.3 -0.4,0.5 -0.3,0.2 -0.3,-0.1 -0.4,-0.3 -0.1,-0.2 0,-0.3 0.1,-0.5 C 14.6,19 14.7,19 14.9,19 Z m -1.2,-2.7 c 0.1,-0.2 0.3,-0.2 0.6,-0.1 0.3,0.2 0.3,0.8 -0.1,0.8 -0.3,0 -0.6,-0.5 -0.5,-0.7 z M 13,17.2 c 0.2,-0.2 0.3,-0.2 0.5,-0.1 0.1,0 0.2,0.2 0.2,0.4 0,0.3 -0.1,0.4 -0.3,0.3 -0.3,0 -0.4,0.1 -0.5,0 -0.3,-0.1 -0.1,-0.3 0.1,-0.6 z m -0.3,1.4 c 0.2,0.1 0.3,0.5 0,0.6 -0.3,0.1 -0.7,-0.2 -0.6,-0.4 0,-0.4 0.2,-0.4 0.6,-0.2 z m -1.1,1.1 c 0.1,-0.1 0.3,0 0.5,0.1 0.1,0.2 0.4,0.4 0.7,0.6 0.2,0.2 0.3,0.2 0.3,0.4 0,0.2 -0.3,0.2 -0.4,-0.1 -0.1,-0.2 -0.4,-0.2 -0.5,-0.2 -0.1,0 -0.4,-0.1 -0.6,-0.3 -0.3,-0.2 -0.2,-0.4 0,-0.5 z m -0.7,1.5 c 0.1,-0.2 0.4,-0.2 0.7,0 0.3,0.2 0.4,0.5 0.1,0.5 -0.2,0.1 -0.2,0.3 -0.3,0.4 -0.1,0.1 -0.4,-0.1 -0.5,-0.3 -0.2,-0.1 -0.1,-0.5 0,-0.6 z m -0.1,4.7 c -0.2,-0.1 -0.3,-0.2 -0.2,-0.5 0.1,-0.3 0.3,-0.5 0.4,-0.6 0.1,-0.1 0.2,-0.1 0.3,0 0,0 0.1,0.2 0.1,0.3 0,0.1 0,0.2 -0.1,0.3 -0.1,0.1 0,0.2 0,0.3 C 11.2,26 11,26 10.8,25.9 Z m 0.2,1.2 c -0.1,0.2 -0.4,0.4 -0.6,0.6 -0.2,0.2 -0.5,0.4 -0.6,0.2 -0.2,-0.2 -0.1,-0.5 0.2,-0.6 0.3,-0.1 0.3,-0.4 0.5,-0.5 0.3,-0.3 0.7,-0.1 0.5,0.3 z m -0.7,-4.4 c 0,-0.2 0.1,-0.3 0.4,0 0.2,0.2 0.3,0.2 0.3,0.3 0.1,0.1 0.1,0.2 0.1,0.3 -0.1,0.1 -0.2,0.2 -0.4,0.2 -0.2,0 -0.4,-0.1 -0.5,-0.3 0,-0.3 0.2,-0.3 0.1,-0.5 z m -0.4,1.5 c 0.2,-0.1 0.2,-0.1 0.5,-0.1 0.2,0 0.3,0.2 0.1,0.3 -0.2,0.1 -0.2,0.3 -0.3,0.5 -0.1,0.1 -0.2,0.1 -0.4,0 -0.2,-0.2 0,-0.6 0.1,-0.7 z M 9.6,26 c 0.1,-0.2 0.1,-0.2 0.2,-0.2 0.2,0 0.2,0.1 0.2,0.2 0,0.1 0.1,0.1 0.1,0.2 0,0.1 0,0.1 -0.1,0.2 0,0 -0.1,0.1 -0.3,0.1 C 9.7,26.3 9.6,26.1 9.6,26 Z M 46,28.1 C 45.9,33 43.9,37.4 40.7,40.6 37.4,44 32.8,46 27.8,46 c -5,0 -9.6,-2.1 -12.9,-5.3 -3.1,-3.1 -5.1,-7.3 -5.3,-12 0,0 0,-0.1 0,-0.1 0.3,-0.1 0.7,-0.2 1,-0.5 0.6,-0.4 0.8,-0.4 1.2,-0.3 0.4,0.1 0.7,0 0.9,-0.2 0.2,-0.2 0.4,-0.3 0.6,-0.3 0.3,0 0.6,-0.2 0.8,-0.4 0.3,-0.2 0.6,-0.5 1,-0.4 0.3,0.1 0.7,0.2 0.9,0.1 0.2,-0.1 0.6,-0.3 0.7,-0.6 0.1,-0.2 0.4,-0.6 0.8,-0.7 0.2,0 0.5,-0.1 0.8,-0.1 0.5,0.1 0.8,0.6 1.4,0.8 0.6,0.3 1.1,0.6 1.7,0.8 0.6,0.2 1,0.3 1.5,0.6 0.5,0.2 0.3,0.1 0.5,0.3 0,0 0.4,0.2 0.3,0.4 0,0.2 0,0.4 0,0.4 -0.1,0.5 -0.1,0.9 -0.2,1.1 -0.1,0.2 -0.1,0.3 -0.1,0.6 0,0.3 -0.1,0.4 -0.1,0.6 0,0.2 -0.1,0.4 -0.2,0.5 -0.1,0.1 -0.1,0.5 -0.3,0.6 -0.2,0.1 -0.5,0.2 -0.7,0.2 -0.2,0 -0.5,0.1 -0.7,0.2 -0.2,0.1 -0.5,0.2 -0.7,0.3 -0.3,0 -0.6,0 -0.9,0.1 -0.3,0 -0.4,0.1 -0.7,0.1 -0.4,0 -0.7,-0.1 -0.9,-0.1 -0.2,0 -0.4,0 -0.6,0.1 -0.2,0.1 -0.2,0.3 -0.1,0.4 0.1,0.1 0.2,0.3 0.5,0.3 0.4,0 0.6,0.1 0.8,0.1 0.2,0 0.7,0 1,0 0.3,0 0.8,0 1.2,-0.1 0.3,-0.1 0.7,-0.2 1,-0.3 0,0 0.3,-0.1 0.6,0 0.2,0 0.5,0.1 0.6,0.2 0.1,0 0.7,0.1 1,0.1 0.3,0 0.7,0 1,0 l 1.3,-0.1 c 0.7,0 0.6,-0.5 0.3,-0.6 -0.2,0 -0.5,0.1 -0.7,0.1 0,0 -0.7,0.1 -1,-0.3 -0.1,-0.2 -0.1,-0.3 0,-0.7 0.1,-0.3 0.1,-0.6 0,-0.9 C 25,30.5 25,30.3 25,30.3 c 0,-0.2 0.1,-0.3 0.2,-0.4 0.3,-0.3 0.5,-0.3 0.7,-0.2 0,0 0.2,0.2 0.2,0.4 -0.1,0.3 -0.2,0.3 -0.3,0.5 0,0.2 0,0.2 0.1,0.4 0.1,0.2 0.1,0.3 0,0.5 -0.2,0.3 -0.1,0.5 0.2,0.5 0,0 0.5,0 0.7,-0.1 0.2,-0.1 0.3,-0.3 0.3,-0.5 0,-0.2 -0.3,-0.3 0,-0.5 0.3,-0.3 0.2,-0.6 0.2,-0.8 0,-0.2 0.1,-0.2 0.1,-0.5 0.1,-0.3 -0.2,-0.5 -0.3,-0.3 -0.1,0.2 -0.2,-0.6 -0.1,-0.7 0.1,-0.1 0.2,-0.2 0.2,-0.5 0.1,-0.2 0.1,-0.1 0.1,-0.4 -0.1,-0.3 -0.2,-0.1 -0.3,-0.2 -0.3,-0.1 -0.2,-0.7 -0.1,-1 0.1,-0.4 0.3,0 0.5,0.4 0.3,0.3 0.3,-0.5 0.2,-0.8 -0.1,-0.3 0.1,-0.9 0,-1.2 -0.1,-0.3 -0.1,-0.7 0,-0.9 0.1,-0.2 0.1,-0.7 0.1,-1.2 0.2,-0.2 0.3,-0.3 0.8,-0.3 0,0.1 0,0.3 0,0.4 -0.1,0.2 -0.1,0.5 -0.2,0.6 -0.1,0.2 0,0.6 0.1,0.6 0.1,0.1 0.1,0.2 0,0.3 -0.1,0.2 -0.1,0.3 0,0.4 0.1,0.1 0,0.1 0,0.4 0,0.3 0,0.2 0,0.5 0,0.3 -0.1,0.6 0.1,0.6 0.3,0 0.4,-0.1 0.5,0.1 0.1,0.2 0.2,0.6 0.3,0.5 0.2,-0.1 0.3,-0.3 0.3,-0.6 0,-0.3 -0.2,-0.6 -0.2,-1.1 0,-0.5 0,-0.5 0.1,-0.9 0.1,-0.4 0.1,-0.4 0,-0.8 0,-0.2 -0.1,-0.3 -0.1,-0.5 0.2,0.1 0.4,0.2 0.9,0.3 v 0 c 0,0 0,0.1 -0.1,0.1 -0.2,0.3 -0.2,0.5 -0.1,0.7 0.1,0.2 0.5,0.3 0.2,0.6 -0.2,0.2 -0.1,0.6 0.3,0.6 0.4,-0.1 0.6,0 0.5,0.3 -0.1,0.3 0.2,0.4 0.4,0.4 0.9,0 0.9,1 0.4,1.1 -0.5,0.1 -0.5,0.2 -0.8,0.3 -0.3,0.1 -0.3,0.6 -0.2,0.8 0.1,0.2 0.2,0.3 0.1,0.6 -0.2,0.2 -0.2,0.4 -0.1,0.6 0.1,0.2 0.2,0.5 0,0.7 -0.2,0.2 -0.3,0.7 -0.1,1 0.1,0.3 0.3,0.7 0.1,0.8 -0.2,0.2 -0.2,0.1 -0.5,0 -0.3,-0.1 -0.5,0.1 -0.6,-0.2 -0.1,-0.3 0.2,-0.2 0.2,-0.6 0,-0.3 0,0 0,-0.3 0,-0.3 0.3,-0.7 0.2,-1.1 -0.1,-0.4 0.2,-0.5 0.1,-0.8 -0.2,-0.3 -0.5,-0.4 -0.5,-0.7 0,-0.3 -0.1,-0.5 -0.4,-0.5 -0.4,0 -0.1,1.5 -0.1,2 -0.1,0.5 -0.1,0.8 0,1 0.1,0.2 0.1,0.3 0.1,0.6 0,0.5 -0.2,0.5 -0.1,0.7 0.1,0.2 0,0.4 -0.3,0.4 -0.3,0 -0.6,0.1 -0.6,0.4 -0.1,0.2 0.3,0.3 0.5,0.2 0.3,-0.1 0.7,-0.2 0.9,-0.1 0,0 0.4,0.3 0.8,0.3 0.4,0 0.9,0.1 1.2,0.1 0.3,0 1.3,0 1.9,-0.1 0.6,-0.1 1.3,-0.3 1.7,-0.1 0,0 0.9,0.4 1.2,0.4 0.3,0 1.1,0 1.5,0 0.3,0 1.3,0.2 1.6,0.1 0.3,0 0.7,-0.1 0.5,-0.3 -0.1,-0.2 -0.3,-0.2 -0.7,-0.4 -0.4,-0.2 -0.4,-0.3 -1.2,-0.3 -0.7,0 -0.8,0.2 -1.1,0.1 -0.3,0 -0.6,-0.2 -1,-0.4 -0.4,-0.2 -0.9,-0.4 -1.3,-0.4 -0.3,0 -1.3,0.2 -1.6,0.1 C 33,31.9 32.4,31.7 32.2,31.3 32,30.9 32,30.7 32,30.3 c 0.2,-0.7 0,-1.6 0,-1.6 0,0 0,-0.4 0.1,-0.5 0.1,-0.1 0.2,-0.5 0.4,-0.6 0.3,-0.1 0.4,-0.2 0.8,-0.3 0.4,0 0.8,-0.1 1.2,-0.2 0.4,0 2.1,-0.3 2.6,-0.5 0.5,-0.2 0.9,-0.4 1.3,-0.5 0.3,-0.1 0.7,-0.2 1.2,-0.3 0.1,0.3 0.6,0.6 1.4,0.2 1,-0.4 1.2,-0.3 1.5,0.2 0.4,0.5 0.6,0.7 1.2,0.7 0.5,0.1 0.8,0 1,0.4 0.2,0.4 0.3,0.8 0.8,0.7 0,-0.1 0.3,0 0.5,0.1 0,0 0,0 0,0 z"
   id="path92" />
	</g>
</svg>